<svg data-v-0dd9719b="" version="1.0" xmlns="http://www.w3.org/2000/svg" xmlns:xlink="http://www.w3.org/1999/xlink" width="100%" height="100%" viewBox="0 0 340.000000 250.000000" preserveAspectRatio="xMidYMid meet" color-interpolation-filters="sRGB" style="margin: auto;"> <rect data-v-0dd9719b="" x="0" y="0" width="100%" height="100%" fill="#fff" fill-opacity="1" class="background"></rect> <rect data-v-0dd9719b="" x="0" y="0" width="100%" height="100%" fill="url(#watermark)" fill-opacity="1" class="watermarklayer"></rect> <g data-v-0dd9719b="" fill="#86daf7" class="icon-text-wrapper icon-svg-group iconsvg" transform="translate(48.345001220703125,90.22424697875977)"><g class="iconsvg-imagesvg" transform="translate(0,0)"><g><rect fill="#86daf7" fill-opacity="0" stroke-width="2" x="0" y="0" width="60.00000000000001" height="69.55150868814263" class="image-rect"></rect> <svg x="0" y="0" width="60.00000000000001" height="69.55150868814263" filtersec="colorsb7258044380" class="image-svg-svg primary" style="overflow: visible;"><svg xmlns="http://www.w3.org/2000/svg" viewBox="0 0 129.39999389648438 150"><g><g><path d="M129.4 75a75 75 0 0 1-75 75H14.7v-20.1h39.7a55 55 0 0 0 0-110H14.7V0h39.7a75 75 0 0 1 75 75zm-29.6-.1a45 45 0 0 0-45-45H14.7v90h40.1a45.1 45.1 0 0 0 45-45zm9.6 0a55 55 0 0 0-55-55H14.7v10h40.1a45 45 0 0 1 0 90H14.7v10h39.7a55 55 0 0 0 55-55z" fill="#86daf7"></path><path d="M14.7 119.9v10H0v-10zM0 19.9v10h14.7v-10z" fill="#df81b3"></path><path d="M109.4 74.9a55 55 0 0 0-55-55H14.7v10h40.1a45 45 0 0 1 0 90H14.7v10h39.7a55 55 0 0 0 55-55z" fill="#746dac"></path></g></g></svg></svg> <!----></g></g> <g transform="translate(67,5.84950065612793)"><g data-gra="path-name" fill-rule="" class="tp-name iconsvg-namesvg" transform="translate(0,0)"><g transform="scale(1)"><g><path d="M20.04-37.09L20.04-37.09Q24.26-34.98 24.26-34.63L24.26-34.63Q24.26-34.45 23.73-34.45L23.73-34.45Q22.5-34.1 21.97-33.05L21.97-33.05Q20.21-30.06 19.51-29L19.51-29 35.86-29 38.32-31.82 42.36-28.3 42.19-27.95 18.98-27.95 11.43-15.82 21.8-15.82Q21.8-22.85 21.45-24.79L21.45-24.79Q24.26-23.91 26.02-22.85L26.02-22.85Q26.02-22.68 25.14-21.97L25.14-21.97Q24.61-21.45 24.61-21.45L24.61-21.45 24.61-15.82 32.34-15.82 34.63-18.11 38.32-15.12 38.32-14.77 24.61-14.77Q24.61-7.73 24.79-1.23L24.79-1.23Q24.96 2.64 24.79 2.46L24.79 2.46Q23.73 4.57 20.39 5.27L20.39 5.27Q20.39 5.27 20.39 5.1L20.39 5.1Q20.39 2.46 14.77 1.23L14.77 1.23 14.77 0.7Q21.62 1.58 21.62 1.05L21.62 1.05Q22.15 0.53 21.8-14.77L21.8-14.77 11.07-14.77Q10.9-14.77 9.14-13.54L9.14-13.54Q8.96-13.54 6.86-15.82L6.86-15.82Q6.86-15.82 7.38-16.17L7.38-16.17Q8.44-16.7 8.79-17.05L8.79-17.05Q12.13-21.62 15.64-27.95L15.64-27.95 5.27-27.95 3.52-27.6 2.11-29 16.17-29Q16.35-29.53 17.4-31.29L17.4-31.29Q19.34-35.51 20.04-37.09ZM14.59-13.01L14.59-13.01Q17.58-10.37 17.75-10.02L17.75-10.02Q17.75-9.84 17.4-9.84L17.4-9.84Q16.35-9.67 15.29-8.61L15.29-8.61Q7.21-0.7 1.41 2.46L1.41 2.46 1.23 1.93Q9.49-4.39 14.59-13.01ZM28.48-11.78L28.65-12.13Q36.56-8.09 40.61-2.64L40.61-2.64Q41.84 1.76 38.67 1.93L38.67 1.93Q38.5 1.76 38.14 0.7L38.14 0.7Q35.68-5.8 28.48-11.78L28.48-11.78ZM58.36-31.11L58.36-36.91 62.23-35.16 62.23-34.8 61.17-33.93 61.17-31.11 72.42-31.11 72.42-36.74 76.64-35.16 76.46-34.8 75.23-34.1 75.23-31.11 81.91-31.11 83.67-33.75 87.71-30.41 87.54-30.06 75.23-30.06 75.23-26.37Q74.36-25.49 72.42-25.49L72.42-25.49 72.42-30.06 61.17-30.06 61.17-26.19Q60.12-25.49 58.36-25.31L58.36-25.31 58.36-30.06 50.45-30.06 48.34-29.71 46.76-31.11 58.36-31.11ZM63.81-28.48L63.98-28.83Q70.84-26.19 68.2-23.03L68.2-23.03 80.68-23.03 82.62-24.96 87.36-21.8Q87.19-21.62 86.48-21.62L86.48-21.62Q83.14-21.62 79.45-17.58L79.45-17.58 79.1-17.93Q80.16-20.21 81.21-21.97L81.21-21.97 52.73-21.97Q52.73-17.75 50.27-16.88L50.27-16.88Q48.87-16.52 47.99-17.4L47.99-17.4Q47.46-18.28 48.52-18.98L48.52-18.98Q51.86-20.74 51.68-24.96L51.68-24.96 52.38-24.96Q52.56-24.08 52.73-23.03L52.73-23.03 66.27-23.03Q65.57-26.54 63.81-28.48L63.81-28.48ZM73.13-16.88L75.23-19.51 78.93-16.17 78.75-15.82 57.83-15.82 55.9-15.47 54.49-16.88 73.13-16.88ZM81.04-10.9L83.32-13.71 87.36-10.2 87.19-9.84 72.25-9.84 72.25-0.18Q71.54 1.23 74.18 1.58L74.18 1.58Q75.41 1.93 79.28 1.76L79.28 1.76Q82.62 1.58 83.32 1.23L83.32 1.23Q84.2 0.53 85.08-5.45L85.08-5.45 85.78-5.45Q85.43 0 87.19 0.88L87.19 0.88Q87.71 1.05 87.71 1.23L87.71 1.23Q87.01 3.69 82.62 4.22L82.62 4.22Q76.99 4.57 72.95 4.04L72.95 4.04Q69.08 3.52 69.26 0.88L69.26 0.88 69.26-9.84 63.11-9.84Q62.58-1.93 59.24 0.7L59.24 0.7Q56.43 3.52 45.88 5.45L45.88 5.45 45.7 4.57Q54.49 2.64 57.13-0.18L57.13-0.18Q59.94-2.81 60.29-9.84L60.29-9.84 50.63-9.84 47.29-9.32 46.05-10.9 81.04-10.9ZM110.57-20.57L110.57-36.74Q114.79-35.16 115.14-34.63L115.14-34.63Q115.14-34.63 114.26-33.93L114.26-33.93Q113.38-33.4 113.38-33.22L113.38-33.22 113.38-20.57 115.31-20.57Q120.59-27.77 123.05-33.57L123.05-33.57Q126.91-31.11 126.91-30.94L126.91-30.94Q126.91-30.76 126.04-30.41L126.04-30.41Q124.8-29.71 124.1-29.18L124.1-29.18Q122.7-27.77 120.41-24.96L120.41-24.96Q118.13-22.15 116.72-20.57L116.72-20.57 125.86-20.57 127.97-23.38 132.19-19.69 132.01-19.51 115.49-19.51Q121.64-7.21 133.24-3.87L133.24-3.87 133.07-3.34Q130.08-3.69 128.85-1.58L128.85-1.58Q128.5-1.23 128.5-1.23L128.5-1.23Q117.77-8.61 114.61-19.51L114.61-19.51 113.38-19.51 113.55 3.69Q112.15 4.92 110.39 5.1L110.39 5.1 110.57-17.4Q103.18-5.63 91.23 0.88L91.23 0.88 90.88 0.35Q102.13-7.73 108.28-19.51L108.28-19.51 95.45-19.51 93.52-19.16 92.81-20.57 110.57-20.57ZM97.21-31.82L97.56-32.34Q103.36-29.18 105.47-26.54L105.47-26.54Q106.17-24.96 105.12-23.2L105.12-23.2Q103.71-21.45 103.01-23.03L103.01-23.03Q103.01-23.2 102.83-23.55L102.83-23.55Q101.6-27.42 97.21-31.82L97.21-31.82ZM148.54-37.27L148.54-37.27 152.05-34.8Q152.23-34.63 151.52-34.45L151.52-34.45Q150.82-33.93 150.29-33.57L150.29-33.57Q149.59-33.05 148.54-31.29L148.54-31.29Q148.01-30.41 147.66-29.88L147.66-29.88 158.55-29.88Q157.32-33.75 155.39-35.68L155.39-35.68Q154.86-36.21 154.69-36.39L154.69-36.39 155.04-36.74Q159.96-35.16 161.02-33.57L161.02-33.57Q161.54-31.82 159.43-29.88L159.43-29.88 169.45-29.88 171.39-32.34 174.9-29.18 174.73-28.83 159.61-28.83 159.61-24.61 167.7-24.61 169.98-26.72 173.14-23.73 172.97-23.55 159.61-23.55 159.61-19.16 167.87-19.16 169.63-21.27 172.44-18.46 172.27-18.28 159.61-18.28 159.61-14.06 169.63-14.06 171.74-16.17 174.9-13.18 174.9-13.01 155.74-13.01Q156.09-12.83 159.26-11.43L159.26-11.43Q159.26-11.25 158.91-10.9L158.91-10.9Q158.03-10.2 158.03-8.61L158.03-8.61 171.74-8.61 174.2-10.9 177.54-7.73 177.36-7.56 160.14-7.56Q165.59 0.18 177.54 0.7L177.54 0.7 177.54 1.41Q174.55 1.23 173.14 3.34L173.14 3.34Q172.97 3.69 172.79 3.69L172.79 3.69Q162.95 0.35 159.43-7.56L159.43-7.56 158.03-7.56 158.2 4.39Q157.5 5.1 155.04 5.63L155.04 5.63Q155.39-2.46 155.39-7.38L155.39-7.38Q147.3 1.41 135.88 4.39L135.88 4.39 135.7 3.87Q146.6-0.88 151.88-7.56L151.88-7.56 139.39-7.56 137.29-7.21 136.41-8.61 155.39-8.61 155.39-13.01 147.3-13.01 147.3-11.6Q145.55-10.55 144.49-10.37L144.49-10.37Q144.49-12.13 144.67-14.94L144.67-14.94Q145.02-21.45 145.02-26.54L145.02-26.54Q139.75-21.62 137.11-19.34L137.11-19.34 136.41-19.86Q143.09-26.02 148.54-37.27ZM156.97-24.61L156.97-28.83 149.06-28.83Q147.13-29 147.3-27.6L147.3-27.6 147.3-24.61 156.97-24.61ZM156.97-19.16L156.97-23.55 147.3-23.55 147.3-19.16 156.97-19.16ZM156.97-14.06L156.97-18.28 147.3-18.28 147.3-14.06 156.97-14.06Z" transform="translate(-1.2300000190734863, 37.27000045776367)"></path></g> <!----> <!----> <!----> <!----> <!----> <!----> <!----></g></g> <g data-gra="path-slogan" fill-rule="" class="tp-slogan iconsvg-slogansvg" fill="#86daf7" transform="translate(40.974998474121094,48.900001525878906)"><!----> <!----> <g transform="scale(1, 1)"><g transform="scale(1)"><path d="M4.41 0L0.94 0L0.94-8.58L4.45-8.58Q7.92-8.39 8.06-4.41L8.06-4.41Q7.88-0.09 4.41 0L4.41 0ZM4.27-7.64L2.11-7.64L2.11-0.98L4.36-0.98Q6.80-1.13 6.89-4.31L6.89-4.31Q6.84-7.55 4.27-7.64L4.27-7.64ZM16.31-4.27L16.31-4.27Q16.13-7.64 13.31-7.83L13.31-7.83Q10.45-7.69 10.31-4.27L10.31-4.27Q10.45-0.94 13.31-0.80L13.31-0.80Q16.13-0.98 16.31-4.27ZM17.48-4.27L17.48-4.27Q17.20 0 13.31 0.14L13.31 0.14Q9.38 0 9.09-4.27L9.09-4.27Q9.33-8.72 13.31-8.81L13.31-8.81Q17.20-8.67 17.48-4.27ZM20.25-8.58L24.56-1.64L24.56-8.58L25.69-8.58L25.69 0L24.38 0L20.02-6.94L19.97-6.94L19.97 0L18.84 0L18.84-8.58L20.25-8.58ZM33.89-3.61L31.27-3.61L31.27-4.59L35.02-4.59L35.02 0L34.27 0L33.98-1.08Q33 0.09 31.17 0.14L31.17 0.14Q29.44 0.14 28.50-0.75L28.50-0.75Q27.09-2.06 27.14-4.36L27.14-4.36Q27.47-8.63 31.22-8.81L31.22-8.81Q34.41-8.63 34.88-6L34.88-6L33.75-6Q33.28-7.78 31.17-7.83L31.17-7.83Q28.50-7.64 28.36-4.31L28.36-4.31Q28.36-0.75 31.22-0.75L31.22-0.75Q32.25-0.75 33-1.31L33-1.31Q33.94-2.06 33.89-3.61L33.89-3.61ZM43.22-3.61L40.59-3.61L40.59-4.59L44.34-4.59L44.34 0L43.59 0L43.31-1.08Q42.33 0.09 40.50 0.14L40.50 0.14Q38.77 0.14 37.83-0.75L37.83-0.75Q36.42-2.06 36.47-4.36L36.47-4.36Q36.80-8.63 40.55-8.81L40.55-8.81Q43.73-8.63 44.20-6L44.20-6L43.08-6Q42.61-7.78 40.50-7.83L40.50-7.83Q37.83-7.64 37.69-4.31L37.69-4.31Q37.69-0.75 40.55-0.75L40.55-0.75Q41.58-0.75 42.33-1.31L42.33-1.31Q43.27-2.06 43.22-3.61L43.22-3.61ZM51.80-3.19L51.80-8.58L52.97-8.58L52.97-3.05Q52.83 0.05 49.45 0.14L49.45 0.14Q46.31 0.05 46.17-2.86L46.17-2.86L46.17-8.58L47.34-8.58L47.34-3.19Q47.39-0.84 49.50-0.80L49.50-0.80Q51.80-0.84 51.80-3.19L51.80-3.19ZM60.42 0L59.58-2.48L56.11-2.48L55.22 0L54.05 0L57.28-8.58L58.59-8.58L61.69 0L60.42 0ZM57.84-7.31L56.48-3.52L59.16-3.52L57.89-7.31L57.84-7.31ZM64.13-8.58L68.44-1.64L68.44-8.58L69.56-8.58L69.56 0L68.25 0L63.89-6.94L63.84-6.94L63.84 0L62.72 0L62.72-8.58L64.13-8.58ZM82.92-8.58L82.92 0L81.80 0L81.80-5.06Q81.80-5.77 81.80-7.22L81.80-7.22L79.36 0L78.19 0L75.80-7.22L75.75-7.22Q75.75-6.70 75.80-5.67L75.80-5.67Q75.80-5.16 75.80-5.06L75.80-5.06L75.80 0L74.63 0L74.63-8.58L76.31-8.58L78.80-1.31L81.23-8.58L82.92-8.58ZM84.80-8.58L85.97-8.58L85.97 0L84.80 0L84.80-8.58ZM87.23-1.92L87.23-2.77L88.31-2.77L88.31-2.16Q88.31-0.75 89.63-0.75L89.63-0.75Q90.98-0.75 90.98-2.25L90.98-2.25L90.98-8.58L92.16-8.58L92.16-2.30Q92.11 0.09 89.67 0.14L89.67 0.14Q87.38 0.09 87.23-1.92L87.23-1.92ZM94.13-8.58L95.30-8.58L95.30 0L94.13 0L94.13-8.58Z" transform="translate(-0.9375, 8.8125)"></path></g></g></g></g></g><defs v-gra="od"></defs></svg>